<svg fill="none" height="512" viewBox="0 0 24 24" width="512" xmlns="http://www.w3.org/2000/svg"><g fill="rgb(0,0,0)"><path d="m17 21.75h-10c-4.41 0-5.75-1.34-5.75-5.75v-8c0-4.41 1.34-5.75 5.75-5.75h10c4.41 0 5.75 1.34 5.75 5.75v8c0 4.41-1.34 5.75-5.75 5.75zm-10-18c-3.58 0-4.25.68-4.25 4.25v8c0 3.57.67 4.25 4.25 4.25h10c3.58 0 4.25-.68 4.25-4.25v-8c0-3.57-.67-4.25-4.25-4.25z"/><path d="m19 8.75h-5c-.41 0-.75-.34-.75-.75s.34-.75.75-.75h5c.41 0 .75.34.75.75s-.34.75-.75.75z"/><path d="m19 12.75h-4c-.41 0-.75-.34-.75-.75s.34-.75.75-.75h4c.41 0 .75.34.75.75s-.34.75-.75.75z"/><path d="m19 16.75h-2c-.41 0-.75-.34-.75-.75s.34-.75.75-.75h2c.41 0 .75.34.75.75s-.34.75-.75.75z"/><path d="m8.50043 12.0399c-1.41 0-2.56-1.15-2.56-2.55998 0-1.41 1.15-2.56 2.56-2.56s2.55997 1.15 2.55997 2.56c0 1.40998-1.14997 2.55998-2.55997 2.55998zm0-3.61998c-.58 0-1.06.48-1.06 1.06 0 .57998.48 1.05998 1.06 1.05998s1.06-.48 1.06-1.05998c0-.58-.48-1.06-1.06-1.06z"/><path d="m11.9999 17.08c-.38 0-.71-.29-.75-.68-.11-1.08-.98-1.95-2.06999-2.05-.46-.04-.92-.04-1.38 0-1.09.1-1.96.96-2.07 2.05-.04.41-.41.72-.82.67-.41-.04-.71-.41-.67-.82.18-1.8 1.61-3.23 3.42-3.39.55-.05 1.11-.05 1.66 0 1.79999.17 3.23999 1.6 3.41999 3.39.04.41-.26.78-.67.82-.02.01-.05.01-.07.01z"/></g></svg>