<svg id="Layer_1" enable-background="new 0 0 48 48" viewBox="0 0 48 48" xmlns="http://www.w3.org/2000/svg"><path id="XMLID_35_" d="m44.2421875 16.5478516-2.5244141-7.2978516c-.6513672-1.8828125-2.4277344-3.1479492-4.4199219-3.1479492h-26.555664c-1.9921875 0-3.7685547 1.2651367-4.4199219 3.1479492l-2.5244141 7.2978516c-.5996094 1.7329102-.3925781 3.5.5668945 4.847168.9858398 1.3842773 2.6660156 2.1777344 4.6098633 2.1777344 1.90625 0 3.8183594-.7636719 5.2905273-2.0429688 1.1367188 1.2729492 2.84375 2.0429688 4.7397461 2.0429688 1.9174805 0 3.71875-.7607422 5.0151367-2.0415039 1.2963867 1.2807617 3.0981445 2.0415039 5.0151367 2.0415039 1.8964844 0 3.6035156-.7700195 4.7402344-2.0429688 1.2123413 1.053894 2.7244873 1.7496948 4.2851563 1.9650269v12.6575317c0 1.5078125-1.2275391 2.7353516-2.7363281 2.7353516h-5.2294922v-6.7148438c0-3.203125-2.6054688-5.8085938-5.809082-5.8085938h-.4399414c-3.203125 0-5.809082 2.6054688-5.809082 5.8085938v6.7148438h-5.3212891c-1.5083008 0-2.7358398-1.2275391-2.7358398-2.7353516v-8.9248047c0-.828125-.6713867-1.5-1.5-1.5s-1.5.671875-1.5 1.5v8.9248047c0 3.1621094 2.5732422 5.7353516 5.7358398 5.7353516h6.8212891 9.0581055 6.7294922c3.1630859 0 5.7363281-2.5732422 5.7363281-5.7353516v-12.8878785c1.078186-.3503418 1.987793-.9891968 2.6152344-1.8694458.9589843-1.3476562 1.1660156-3.1142578.5664062-4.8471679zm-23.2055664 22.3398437v-6.7148438c0-1.5488281 1.2602539-2.8085938 2.809082-2.8085938h.4399414c1.5493164 0 2.809082 1.2597656 2.809082 2.8085938v6.7148438zm20.1948242-19.2329101c-.421875.5917969-1.1904297.9179688-2.1660156.9179688-1.6357422 0-3.3535156-.9648438-4.2744141-2.4013672-.2783203-.434082-.7558594-.6904297-1.2626953-.6904297-.0683594 0-.1367188.0048828-.2060547.0141602-.5800781.0805664-1.0595703.4907227-1.2294922 1.0507813-.3730469 1.2314453-1.5732422 2.0268555-3.0576172 2.0268555-1.5585938 0-3.0283203-.8969727-3.6582031-2.2319336-.2480469-.5249023-.7763672-.8598633-1.3569336-.8598633s-1.1088867.3349609-1.3564453.8598633c-.6303711 1.3349609-2.1005859 2.2319336-3.6586914 2.2319336-1.4838867 0-2.684082-.7958984-3.0576172-2.0268555-.1699219-.5600586-.6499023-.9702148-1.2294922-1.0507813-.5810547-.0771484-1.1533203.184082-1.4692383.6767578-.9199219 1.4360352-2.6376953 2.4008789-4.2739258 2.4008789-.9750977 0-1.7446289-.3261719-2.1665039-.9179688-.3950195-.5551758-.4575195-1.3100586-.175293-2.1264648l2.5244141-7.2973633c.2338867-.675293.8706055-1.1289063 1.5849609-1.1289063h26.5556641c.7138672 0 1.3505859.4536133 1.5839844 1.128418l2.5244141 7.2983398c.2832031.815918.2207031 1.5708008-.1748047 2.1259766z"/></svg>