<svg id="Layer_22" viewBox="0 0 32 32" xmlns="http://www.w3.org/2000/svg" data-name="Layer 22"><path d="m24 2h-10c-2.21 0-4 1.79-4 4v5c0 .55.45 1 1 1s1-.45 1-1v-5c0-1.1.9-2 2-2v1c0 1.65 1.35 3 3 3h4c1.65 0 3-1.35 3-3v-1c1.1 0 2 .9 2 2v20c0 1.1-.9 2-2 2h-1c-.55 0-1 .45-1 1s.45 1 1 1h1c2.21 0 4-1.79 4-4v-20c0-2.21-1.79-4-4-4zm-2 3c0 .55-.45 1-1 1h-4c-.55 0-1-.45-1-1v-1h6z"/><path d="m18.41 22c-.78-.78-2.05-.78-2.83 0l-.59.59-3.59-3.59.59-.59c.78-.78.78-2.05 0-2.83l-2.59-2.59c-.78-.78-2.05-.78-2.83 0l-1.12 1.12c-.94.94-1.46 2.2-1.46 3.54v.69c0 1.34.52 2.59 1.46 3.54l6.66 6.66c.94.94 2.2 1.46 3.54 1.46h.69c1.34 0 2.59-.52 3.54-1.46l1.12-1.12c.78-.78.78-2.05 0-2.83zm.05 5.12c-.56.56-1.33.88-2.12.88h-.69c-.79 0-1.56-.32-2.12-.88l-6.66-6.66c-.56-.56-.88-1.33-.88-2.12v-.69c0-.79.32-1.56.88-2.12l1.12-1.12 2.59 2.59-1.29 1.29c-.39.39-.39 1.02 0 1.41l5 5c.39.39 1.02.39 1.41 0l1.29-1.29 2.59 2.59z"/></svg>